<svg xmlns="http://www.w3.org/2000/svg" xmlns:xlink="http://www.w3.org/1999/xlink" width="48" height="48"><defs><linearGradient id="a"><stop offset="0" stop-color="#ffd800"/><stop offset="1" stop-color="#ff6100"/></linearGradient><linearGradient id="b" x1="906.952" x2="931.379" y1="515.915" y2="546.094" gradientTransform="translate(-1388.719 211.343) scale(1.53785)" gradientUnits="userSpaceOnUse" xlink:href="#a"/></defs><g transform="translate(0 -1004.362)"><rect width="48" height="48" y="1004.362" fill="url(#b)" rx="10.144" ry="10.144"/><path style="line-height:normal;text-indent:0;text-align:start;text-decoration-line:none;text-decoration-style:solid;text-decoration-color:#000;text-transform:none;block-progression:tb;isolation:auto;mix-blend-mode:normal" fill="#fff" d="M13.516 1021.362a.5.5 0 0 0-.049 0 .5.5 0 0 0-.209.935l3.248 1.862v3.707a.502.498 0 0 0 .252.431l3.246 1.858v3.408l-3.244 1.857a.5.5 0 1 0 .498.87l3.242-1.854 3.248 1.86a.502.498 0 0 0 .502 0l3.248-1.86 3.245 1.858a.5.5 0 0 0 .496-.87l-3.243-1.855v-3.412l3.245-1.858a.502.498 0 0 0 .252-.431v-3.71l3.25-1.86a.5.5 0 0 0-.274-.936.5.5 0 0 0-.223.066l-3.253 1.861-3.245-1.857a.502.498 0 0 0-.504 0l-3.244 1.86-3.246-1.858a.502.498 0 0 0-.502 0l-3.248 1.86-3.25-1.862a.5.5 0 0 0-.238-.07zm6.986 1.078 2.992 1.713v3.422l-2.996 1.717-2.988-1.713v-3.426l2.992-1.713zm6.994 0 2.993 1.713v3.428l-2.989 1.71-2.996-1.716v-3.422l2.992-1.713zm-7.029 2.928a.5.5 0 0 0-.463.5.5.5 0 0 0 .498.498.5.5 0 0 0 .5-.498.5.5 0 0 0-.5-.5.5.5 0 0 0-.035 0zm6.994 0a.5.5 0 0 0-.465.5.5.5 0 0 0 .5.498.5.5 0 0 0 .5-.498.5.5 0 0 0-.5-.5.5.5 0 0 0-.035 0zm-3.46 3.074 2.992 1.713v3.422L24 1035.29l-2.992-1.715v-3.42l2.992-1.713zm-.036 2.922a.5.5 0 0 0-.465.5.5.5 0 0 0 .5.498.5.5 0 0 0 .498-.498.5.5 0 0 0-.498-.5.5.5 0 0 0-.035 0z" color="#000" font-family="sans-serif" font-weight="400" overflow="visible"/></g></svg>