<svg xmlns="http://www.w3.org/2000/svg" xmlns:xlink="http://www.w3.org/1999/xlink" width="32" height="32" version="1"><defs><linearGradient id="b" x1="1073.403" x2="1097.116" y1="516.451" y2="544.308" gradientTransform="translate(-701.628 -80.235) scale(1.02524)" gradientUnits="userSpaceOnUse" xlink:href="#a"/><linearGradient id="a"><stop offset="0" stop-color="#16ff6a"/><stop offset="1" stop-color="#0090a5"/></linearGradient></defs><g transform="translate(-394.286 -448.445)"><rect width="32" height="32" x="394.286" y="448.445" fill="url(#b)" rx="6.763" ry="6.763"/><path fill="#fff" d="M409.172 454.435c-.107 0-.178.106-.178.213v1.913c0 .106.107.213.213.213h.46v1.062a8.607 8.607 0 0 0-4.818 2.056l-.496-.532.212-.248a.171.171 0 0 0 0-.248l-1.063-1.098a.386.386 0 0 0-.283 0l-1.276 1.275h-.035c-.071.071-.036.213.035.284l1.063 1.063c.071.07.213.07.284 0l.212-.213.532.496c-1.24 1.453-2.02 3.366-2.02 5.386.035 4.642 3.791 8.398 8.362 8.398s8.327-3.756 8.327-8.327c0-4.358-3.366-7.937-7.653-8.292v-1.062h.496a.229.229 0 0 0 .212-.213v-1.913a.229.229 0 0 0-.212-.213h-2.374zm.956 4.287h.425v1.099h-.425v-1.099zm3.756.85.354.213-.566.922-.32-.213.532-.921zm-7.724.426.673.886-.354.248-.638-.886.319-.248zm4.216.177.142.39.283.886v4.11c.178.14.284.353.284.637a.727.727 0 0 1-.744.744.727.727 0 0 1-.744-.744.83.83 0 0 1 .283-.638V461.415l.32-.886.176-.354zm0 .886-.141.425v3.933c.035 0 .106-.035.141-.035.036 0 .107 0 .142.035v-3.933l-.142-.425zm6.307 1.17.213.354-.957.531-.212-.319.956-.567zm-12.897.389.956.46-.177.39-.992-.496.213-.354zm6.59 3.189a.355.355 0 0 0-.354.354c0 .177.142.32.354.32.213 0 .32-.143.32-.32 0-.212-.143-.354-.32-.354zm-7.476.106h1.098v.425H402.9v-.425zm13.783 0h1.099v.425h-1.099v-.425zm-.567 2.906.993.496-.213.354-.957-.46.177-.39zm-11.374.319.213.319-.957.566-.212-.354.956-.531zm9.496 2.02.638.885-.319.248-.673-.886.354-.248zm-7.228.39.319.212-.531.956-.355-.212.567-.957zm3.118.92h.425v1.099h-.425v-1.099z"/></g></svg>