<svg xmlns="http://www.w3.org/2000/svg" xmlns:xlink="http://www.w3.org/1999/xlink" width="28" height="28"><defs><linearGradient id="b" x1="949.87" x2="974.39" y1="518.014" y2="544.657" gradientTransform="translate(-848.372 -462.595) scale(.89708)" gradientUnits="userSpaceOnUse" xlink:href="#a"/><linearGradient id="a"><stop offset="0" stop-color="#24f7bc"/><stop offset="1" stop-color="#24c4fc"/></linearGradient></defs><rect width="28" height="28" fill="url(#b)" rx="5.917" ry="5.917"/><path fill="#fff" d="M14 6.5A7.471 7.471 0 0 0 6.5 14c0 4.165 3.335 7.5 7.5 7.5s7.5-3.335 7.5-7.5-3.335-7.5-7.5-7.5zm0 1c3.635 0 6.5 2.865 6.5 6.5s-2.865 6.5-6.5 6.5-6.5-2.865-6.5-6.5 2.865-6.5 6.5-6.5zm-3 3c-.411 0-.802.146-1.078.422A1.516 1.516 0 0 0 9.5 12c0 .411.146.802.422 1.078s.667.422 1.078.422c.411 0 .802-.146 1.078-.422s.422-.667.422-1.078c0-.411-.146-.802-.422-1.078A1.516 1.516 0 0 0 11 10.5Zm6 0c-.411 0-.802.146-1.078.422A1.516 1.516 0 0 0 15.5 12c0 .411.146.802.422 1.078s.667.422 1.078.422c.767 0 1.5-.622 1.5-1.5 0-.411-.146-.802-.422-1.078A1.516 1.516 0 0 0 17 10.5Zm-6 1c.189 0 .297.055.371.129.074.074.129.182.129.371s-.055.297-.129.371c-.074.074-.182.129-.371.129s-.297-.055-.371-.129c-.074-.074-.129-.182-.129-.371s.055-.297.129-.371c.074-.074.182-.129.371-.129Zm6 0c.189 0 .297.055.371.129.074.074.129.182.129.371 0 .322-.267.5-.5.5-.189 0-.297-.055-.371-.129-.074-.074-.129-.182-.129-.371s.055-.297.129-.371c.074-.074.182-.129.371-.129Zm-6.05 4.65c-.126 0-.25.05-.35.15-.2.2-.2.5 0 .7.9.9 2.1 1.5 3.4 1.5 1.3 0 2.5-.5 3.4-1.5.1-.2.1-.5-.1-.7-.2-.2-.5-.2-.7 0-.6.8-1.6 1.2-2.6 1.2s-2-.4-2.7-1.2a.498.498 0 0 0-.35-.15z"/></svg>