<svg xmlns="http://www.w3.org/2000/svg" xmlns:xlink="http://www.w3.org/1999/xlink" width="48" height="48"><defs><linearGradient id="b" x1="992.183" x2="1019.298" y1="516.081" y2="545.959" gradientTransform="translate(-1522.705 211.343) scale(1.53785)" gradientUnits="userSpaceOnUse" xlink:href="#a"/><linearGradient id="a"><stop offset="0" stop-color="#ff1679"/><stop offset="1" stop-color="#ff770b"/></linearGradient></defs><g transform="translate(0 -1004.362)"><rect width="48" height="48" y="1004.362" fill="url(#b)" rx="10.144" ry="10.144"/><path fill="#fff" fill-rule="evenodd" d="M18.226 1019.362a6.19 6.19 0 0 0-4.398 1.836 6.245 6.245 0 0 0 0 8.828l.878.885 8.797 8.828 8.797-8.828.88-.885a6.245 6.245 0 0 0 0-8.828 6.19 6.19 0 0 0-8.798 0l-.879.883-.879-.883a6.19 6.19 0 0 0-4.398-1.836zm.027 1.506a.5.5 0 1 1 0 1 3.749 3.749 0 0 0-3.248 5.625.5.5 0 1 1-.865.5 4.752 4.752 0 0 1 4.113-7.125z"/></g></svg>